<svg xmlns="http://www.w3.org/2000/svg" width="33.049" height="40.075" viewBox="0 0 33.049 40.075">
  <g transform="translate(-259 -13.925)">
    <path class="a" d="M267 20a6.007 6.007 0 0 0-6 6v20a6.007 6.007 0 0 0 6 6h14a6.007 6.007 0 0 0 6-6V26a6.007 6.007 0 0 0-6-6zm0-2h14a8 8 0 0 1 8 8v20a8 8 0 0 1-8 8h-14a8 8 0 0 1-8-8V26a8 8 0 0 1 8-8"/>
    <path class="a" d="M278.25 28.5h-12v-1h12Zm3.5 4h-15.5v-1h15.5Zm0 4h-15.5v-1h15.5Zm-3 4h-12.5v-1h12.5Zm3 4h-15.5v-1h15.5Z"/>
    <rect width="3" height="20" rx="1.5" transform="rotate(30 118.741 547.085)" style="fill:#fff"/>
    <path d="M1.5 0A1.5 1.5 0 0 1 3 1.5v17a1.5 1.5 0 0 1-3 0v-17A1.5 1.5 0 0 1 1.5 0" transform="rotate(30 118.741 547.085)" style="fill:rgba(112,112,112,.25)"/>
  </g>
</svg>